<svg width="331" height="60" viewBox="0 0 331 60" fill="none" xmlns="http://www.w3.org/2000/svg">
<path d="M318.837 19.682V29.4439H290.9V33.174H323.837V43.0946H307.091V49.6819H330.821V59.9993H271.773V49.6819H295.504V43.0946H279.71V6.03125H321.773V16.0312H290.9V19.682H318.837Z" fill="white"/>
<path d="M268.096 60.0001H209.049V49.6826H232.779V41.0319H215.477V31.1906H222.065V17.3018H215.477V6.98438H261.747V17.3018H255.16V31.1906H261.747V41.0319H244.366V49.6826H268.096V60.0001ZM244.366 31.1906V17.3018H232.858V31.1906H244.366Z" fill="white"/>
<path d="M164.619 41.6665C161.974 41.6665 159.487 41.1903 157.159 40.2379C154.831 39.2327 152.82 37.8835 151.127 36.1903C149.328 34.5501 147.926 32.6189 146.921 30.3967C145.916 28.1216 145.413 25.6877 145.413 23.0952C145.413 20.5026 145.916 18.0952 146.921 15.873C147.926 13.5978 149.328 11.6137 151.127 9.9206C152.82 8.22748 154.831 6.90474 157.159 5.95236C159.487 4.94707 161.974 4.44443 164.619 4.44443C167.265 4.44443 169.725 4.94707 172 5.95236C174.328 6.90474 176.365 8.22748 178.111 9.9206C179.805 11.6137 181.154 13.5978 182.159 15.873C183.217 18.0952 183.746 20.5026 183.746 23.0952C183.746 25.6877 183.217 28.1216 182.159 30.3967C181.154 32.6189 179.805 34.5501 178.111 36.1903C176.365 37.8835 174.328 39.2327 172 40.2379C169.725 41.1903 167.265 41.6665 164.619 41.6665ZM164.619 14.7618C162.344 14.7618 160.413 15.582 158.826 17.2222C157.291 18.8095 156.524 20.7671 156.524 23.0952C156.524 25.4232 157.291 27.3808 158.826 28.9681C160.413 30.5554 162.344 31.3491 164.619 31.3491C165.678 31.3491 166.683 31.1639 167.635 30.7935C168.641 30.3703 169.514 29.7618 170.254 28.9681C170.995 28.2274 171.577 27.3544 172 26.3491C172.424 25.2909 172.635 24.2063 172.635 23.0952C172.635 21.984 172.424 20.9258 172 19.9206C171.577 18.8624 170.995 17.9364 170.254 17.1428C169.514 16.4021 168.641 15.82 167.635 15.3968C166.683 14.9735 165.678 14.7618 164.619 14.7618ZM203.587 59.9998H192.238V0H203.587V59.9998ZM189.222 48.4919V58.5712H143.35V48.4919H189.222Z" fill="#EFFF04"/>
<path d="M85.5254 23.1745C84.3613 23.1745 83.2502 23.4391 82.192 23.9682C81.1338 24.4973 80.2079 25.238 79.4143 26.1904C78.6206 27.0898 77.9857 28.1745 77.5095 29.4443C77.0333 30.7142 76.7952 32.0369 76.7952 33.4126C76.7952 34.8411 77.0333 36.1903 77.5095 37.4602C77.9857 38.6771 78.6206 39.7353 79.4143 40.6348C80.2079 41.5871 81.1338 42.3279 82.192 42.857C83.2502 43.3861 84.3613 43.6506 85.5254 43.6506C86.7423 43.6506 87.8798 43.3861 88.938 42.857C89.9962 42.3279 90.9222 41.5871 91.7158 40.6348C92.5095 39.7353 93.1179 38.6771 93.5412 37.4602C94.0174 36.1903 94.2555 34.8411 94.2555 33.4126C94.2555 32.0369 94.0174 30.7142 93.5412 29.4443C93.1179 28.1745 92.5095 27.0898 91.7158 26.1904C90.9222 25.238 89.9962 24.4973 88.938 23.9682C87.8798 23.4391 86.7423 23.1745 85.5254 23.1745ZM85.5254 54.5236C82.8799 54.5236 80.3931 53.9945 78.0651 52.9363C75.7899 51.8252 73.7794 50.3173 72.0333 48.4125C70.2873 46.4549 68.9117 44.2062 67.9064 41.6665C66.9011 39.0739 66.3984 36.3226 66.3984 33.4126C66.3984 30.5025 66.9011 27.7777 67.9064 25.238C68.9117 22.6983 70.2873 20.4497 72.0333 18.492C73.7794 16.5872 75.7899 15.1058 78.0651 14.0476C80.3931 12.9365 82.8799 12.3809 85.5254 12.3809C88.1709 12.3809 90.6576 12.9365 92.9856 14.0476C95.3137 15.1058 97.3243 16.5872 99.0174 18.492C100.763 20.4497 102.113 22.6983 103.065 25.238C104.07 27.7777 104.573 30.5025 104.573 33.4126C104.573 36.3226 104.07 39.0739 103.065 41.6665C102.113 44.2062 100.763 46.4549 99.0174 48.4125C97.3243 50.3173 95.3137 51.8252 92.9856 52.9363C90.6576 53.9945 88.1709 54.5236 85.5254 54.5236ZM124.732 34.365H118.303V59.9998H107.271V3.80951H118.303V24.2856H124.732V0H135.843V59.9998H124.732V34.365Z" fill="white"/>
<path d="M7.77775 42.6982L0 35.3173L14.5238 19.6825H3.01586V10.7936H16.5079V0.793647H28.0158V10.7936H41.5078V19.6825H29.9999L44.4443 35.3173L36.7459 42.6982L22.2221 24.0475L7.77775 42.6982ZM60.9522 59.9998H49.603V0H60.9522V59.9998ZM46.5078 48.4919V58.5712H0.714283V48.4919H16.1111V36.111H27.6983V48.4919H46.5078Z" fill="white"/>
</svg>
