<svg width="218" height="218" viewBox="0 0 218 218" fill="none" xmlns="http://www.w3.org/2000/svg">
<path d="M136.229 109.161L129.78 112.885L127.918 109.66L144.371 100.161L146.233 103.386L139.816 107.09L150.873 126.242L147.287 128.313L136.229 109.161Z" fill="#FF483D"/>
<path d="M132.97 123.855C134.781 126.992 135.442 129.784 134.953 132.23C134.452 134.655 132.863 136.64 130.187 138.185C127.467 139.756 124.931 140.152 122.581 139.374C120.217 138.574 118.13 136.605 116.319 133.468L108.891 120.602L112.477 118.531L119.678 131.002C120.248 131.989 120.85 132.855 121.485 133.6C122.12 134.345 122.788 134.895 123.491 135.25C124.196 135.662 124.962 135.849 125.788 135.811C126.615 135.772 127.466 135.5 128.344 134.993C129.221 134.487 129.872 133.891 130.297 133.208C130.721 132.524 130.953 131.761 130.993 130.919C130.993 130.158 130.829 129.317 130.501 128.395C130.196 127.46 129.758 126.499 129.188 125.512L121.987 113.04L125.541 110.988L132.97 123.855Z" fill="#FF483D"/>
<path d="M94.9506 143.35C95.5458 144.381 96.2491 145.32 97.0604 146.168C97.8936 147.003 98.7841 147.659 99.732 148.136C100.724 148.587 101.758 148.809 102.836 148.801C103.936 148.78 105.045 148.447 106.164 147.801C107.283 147.155 108.115 146.367 108.66 145.438C109.228 144.496 109.554 143.489 109.637 142.417C109.72 141.345 109.608 140.24 109.302 139.101C109.017 137.949 108.577 136.857 107.981 135.826C107.373 134.773 106.648 133.847 105.806 133.046C104.985 132.233 104.066 131.579 103.049 131.084C102.083 130.676 101.056 130.494 99.9694 130.536C98.9044 130.566 97.8344 130.892 96.7595 131.512C95.6626 132.145 94.835 132.916 94.2766 133.823C93.7182 134.731 93.3738 135.704 93.2433 136.745C93.1635 137.873 93.2706 138.996 93.5647 140.113C93.8806 141.218 94.3426 142.297 94.9506 143.35ZM91.1853 145.568C90.2354 143.922 89.5918 142.276 89.2546 140.627C88.9393 138.967 88.9354 137.39 89.2429 135.896C89.5159 134.393 90.1239 132.989 91.067 131.684C91.9974 130.357 93.2742 129.225 94.8976 128.287C96.521 127.35 98.1399 126.81 99.7542 126.668C101.356 126.504 102.876 126.679 104.314 127.194C105.761 127.675 107.115 128.473 108.373 129.589C109.632 130.705 110.736 132.086 111.686 133.731C112.674 135.443 113.343 137.133 113.693 138.803C114.052 140.439 114.084 142.014 113.789 143.53C113.482 145.024 112.85 146.412 111.894 147.695C110.926 148.956 109.63 150.055 108.007 150.993C106.361 151.943 104.75 152.522 103.174 152.73C101.585 152.916 100.078 152.762 98.6523 152.269C97.2141 151.754 95.8547 150.945 94.5741 149.841C93.3029 148.703 92.1732 147.279 91.1853 145.568Z" fill="#FF483D"/>
<path d="M109.699 67.5273L116.116 63.8226C117.717 62.8981 119.333 62.3017 120.962 62.0337C122.614 61.753 124.232 61.7693 125.817 62.0828C127.358 62.4215 128.806 63.1063 130.162 64.1371C131.527 65.1334 132.729 66.5309 133.767 68.3298C134.895 70.2822 135.607 72.1234 135.903 73.8533C136.2 75.5832 136.132 77.1875 135.699 78.6662C135.256 80.1795 134.477 81.5654 133.361 82.824C132.232 84.0607 130.79 85.1857 129.035 86.1989L122.618 89.9036L109.699 67.5273ZM124.395 84.6219L127.159 83.026C129.66 81.5821 131.179 79.8567 131.717 77.8497C132.264 75.8081 131.733 73.3943 130.125 70.6082C129.352 69.27 128.496 68.2433 127.557 67.528C126.626 66.778 125.636 66.253 124.585 65.9529C123.582 65.684 122.529 65.6337 121.427 65.802C120.334 65.9357 119.294 66.2875 118.307 66.8575L115.181 68.6623L124.395 84.6219Z" fill="#FF483D"/>
<path d="M95.0273 75.957L98.6141 73.8862L109.709 93.1035L118.758 87.8789L120.601 91.0708L107.965 98.3662L95.0273 75.957Z" fill="#FF483D"/>
<path d="M81.0521 98.7209C81.6474 99.7519 82.3507 100.691 83.1619 101.539C83.9951 102.374 84.8857 103.03 85.8335 103.507C86.8253 103.958 87.86 104.18 88.9376 104.172C90.0373 104.151 91.1465 103.818 92.2653 103.172C93.3841 102.526 94.2164 101.738 94.7621 100.809C95.3297 99.867 95.6551 98.8601 95.7383 97.7883C95.8215 96.7165 95.7098 95.611 95.4031 94.4719C95.1183 93.32 94.6783 92.2286 94.083 91.1975C93.4751 90.1445 92.7498 89.2177 91.9074 88.4171C91.0868 87.6038 90.168 86.9497 89.151 86.4546C88.1846 86.0473 87.1579 85.8649 86.0709 85.9075C85.0059 85.9374 83.936 86.2626 82.861 86.8832C81.7642 87.5165 80.9365 88.2868 80.3782 89.1942C79.8198 90.1016 79.4754 91.0756 79.3449 92.1162C79.2651 93.2445 79.3722 94.3673 79.6662 95.4845C79.9822 96.5891 80.4442 97.6679 81.0521 98.7209ZM77.2869 100.939C76.337 99.2933 75.6934 97.6466 75.3561 95.9986C75.0408 94.3379 75.0369 92.7606 75.3445 91.2668C75.6174 89.7637 76.2254 88.3597 77.1685 87.0547C78.0989 85.7278 79.3758 84.5957 80.9992 83.6584C82.6226 82.7212 84.2414 82.1814 85.8558 82.0391C87.4575 81.8749 88.9774 82.0503 90.4156 82.5655C91.863 83.0461 93.2161 83.8444 94.4747 84.9605C95.7333 86.0766 96.8376 87.4573 97.7875 89.1026C98.7754 90.8137 99.4444 92.5043 99.7943 94.1742C100.153 95.8096 100.186 97.3852 99.8907 98.9009C99.5832 100.395 98.9515 101.783 97.9958 103.066C97.0274 104.327 95.7315 105.427 94.1081 106.364C92.4628 107.314 90.852 107.893 89.2756 108.101C87.6866 108.287 86.1793 108.133 84.7538 107.64C83.3156 107.125 81.9563 106.316 80.6757 105.212C79.4044 104.074 78.2748 102.65 77.2869 100.939Z" fill="#FF483D"/>
<path d="M67.511 92.5443C67.7745 93.1527 68.0207 93.7564 68.2496 94.3555C68.4785 94.9546 68.7201 95.5756 68.9743 96.2186C68.4123 96.3091 67.9241 96.4008 67.5098 96.4938C67.1047 96.5521 66.7123 96.6324 66.3326 96.7347C65.9309 96.8496 65.5592 96.991 65.2175 97.1591C64.8631 97.3052 64.4885 97.4922 64.0936 97.7202C63.5671 98.0242 63.1208 98.3404 62.7546 98.6688C62.3977 98.9626 62.0928 99.2703 61.8397 99.5919C61.6626 100.045 61.5594 100.5 61.53 100.955C61.5225 101.398 61.6771 101.894 61.9938 102.443C62.2851 102.947 62.6245 103.307 63.0119 103.522C63.4086 103.702 63.8428 103.847 64.3146 103.955C64.7956 104.028 65.3142 104.065 65.8704 104.065C66.4138 104.044 67.0231 103.985 67.6982 103.888L67.6792 103.855C68.4927 103.795 69.3535 103.766 70.2615 103.768C71.1789 103.735 72.0857 103.812 72.982 103.996C73.8251 104.241 74.6484 104.628 75.452 105.159C76.2429 105.667 76.8917 106.36 77.3983 107.238C78.0949 108.444 78.4645 109.591 78.507 110.678C78.5369 111.743 78.3246 112.743 77.87 113.678C77.4315 114.692 76.7774 115.611 75.9075 116.435C75.047 117.224 74.0464 117.948 72.9056 118.607C72.1159 119.063 71.2645 119.437 70.3515 119.73C69.4258 120.001 68.4921 120.233 67.5503 120.426C67.2868 119.818 67.0234 119.209 66.7599 118.601C66.5183 117.98 66.2502 117.389 65.9555 116.828C66.3479 116.748 66.7685 116.666 67.2175 116.582C67.6757 116.464 68.1558 116.333 68.6579 116.189C69.16 116.045 69.662 115.902 70.1641 115.758C70.6535 115.593 71.0847 115.402 71.4576 115.187C72.0061 114.87 72.4617 114.519 72.8244 114.134C73.1872 113.749 73.5027 113.333 73.7709 112.886C74.0265 112.417 74.1609 111.915 74.1742 111.381C74.1749 110.825 73.9916 110.228 73.6243 109.592C73.1303 108.737 72.5246 108.194 71.8072 107.965C71.0898 107.736 70.2615 107.643 69.3223 107.688C68.3796 107.677 67.3729 107.732 66.302 107.853C65.2404 107.939 64.2365 107.948 63.2905 107.88C62.2845 107.759 61.3422 107.47 60.4636 107.012C59.5722 106.532 58.8543 105.82 58.3096 104.877C57.7397 103.89 57.4195 102.904 57.3492 101.921C57.3007 100.925 57.4553 100.003 57.8129 99.1527C58.1889 98.2335 58.7397 97.389 59.4653 96.6191C60.1908 95.8493 61.0691 95.1667 62.1001 94.5714C62.846 94.1408 63.691 93.7553 64.6353 93.4149C65.5888 93.0399 66.5474 92.7497 67.511 92.5443Z" fill="#FF483D"/>
<path fill-rule="evenodd" clip-rule="evenodd" d="M146.522 173.989C182.415 153.267 194.713 107.37 173.99 71.4775C153.267 35.5845 107.371 23.2867 71.478 44.0095C35.5851 64.7323 23.2873 110.628 44.0101 146.521C64.7329 182.414 110.629 194.712 146.522 173.989ZM148.897 178.103C187.061 156.068 200.138 107.267 178.103 69.1027C156.069 30.938 107.268 17.8618 69.1032 39.8962C30.9386 61.9306 17.8624 110.732 39.8968 148.896C61.9311 187.061 110.732 200.137 148.897 178.103Z" fill="#FF483D"/>
</svg>
